<?xml version="1.0" standalone="no"?>
<!DOCTYPE svg PUBLIC "-//W3C//DTD SVG 20010904//EN"
 "http://www.w3.org/TR/2001/REC-SVG-20010904/DTD/svg10.dtd">
<svg version="1.0" xmlns="http://www.w3.org/2000/svg"
 width="499.000000pt" height="499.000000pt" viewBox="0 0 499.000000 499.000000"
 preserveAspectRatio="xMidYMid meet">
<metadata>
Created by potrace 1.14, written by Peter Selinger 2001-2017
</metadata>
<g transform="translate(0.000000,499.000000) scale(0.100000,-0.100000)"
fill="#000000" stroke="none">
<path d="M3020 4395 c0 -8 -5 -15 -11 -15 -5 0 -8 -4 -4 -9 3 -5 1 -12 -5 -16
-6 -4 -8 -10 -5 -15 7 -11 -24 -103 -38 -112 -6 -4 -15 -4 -21 -1 -5 3 -30 7
-55 9 -25 2 -46 4 -46 5 0 1 -16 3 -35 4 -19 2 -51 6 -70 9 -52 8 -192 18
-298 21 -51 1 -95 4 -98 7 -3 3 -6 16 -8 29 -2 13 -10 40 -18 59 l-15 35 3
-62 c1 -35 -1 -63 -4 -64 -4 0 -77 -2 -162 -4 -156 -4 -256 -10 -314 -19 -17
-3 -53 -8 -81 -11 -27 -4 -76 -13 -107 -20 -32 -7 -58 -11 -58 -8 0 3 -6 0
-14 -6 -8 -6 -18 -11 -22 -9 -21 5 -296 -79 -379 -116 -156 -71 -221 -101
-225 -107 -3 -4 -25 -16 -50 -28 -25 -12 -58 -30 -75 -41 -16 -11 -42 -26 -57
-35 -28 -16 -95 -59 -113 -72 -5 -5 -27 -19 -47 -33 -21 -14 -38 -28 -38 -32
0 -5 -5 -8 -11 -8 -40 0 -283 -251 -336 -347 -7 -13 -17 -31 -23 -40 -9 -17
-33 -78 -30 -78 1 0 -4 -13 -10 -29 -31 -82 -24 -204 17 -309 38 -94 105 -176
168 -202 39 -16 51 -18 120 -19 103 -1 162 34 250 148 17 21 40 49 52 62 13
13 23 25 23 28 0 14 105 116 120 116 9 0 28 -9 41 -20 37 -30 42 -34 79 -60
35 -25 47 -34 98 -77 15 -13 30 -23 34 -23 4 0 13 -6 20 -13 7 -7 31 -26 53
-42 22 -17 42 -32 45 -35 3 -4 26 -21 52 -39 26 -19 49 -40 52 -48 6 -15 -2
-82 -12 -97 -3 -5 1 -6 8 -1 9 6 11 4 5 -5 -5 -8 -10 -52 -11 -98 -2 -66 -7
-88 -21 -101 -21 -20 -125 -99 -159 -122 -13 -9 -37 -27 -52 -40 -15 -13 -44
-35 -63 -49 -18 -13 -38 -28 -44 -33 -5 -4 -64 -49 -130 -98 -66 -50 -123 -95
-126 -101 -3 -5 -8 -9 -10 -8 -10 3 -39 -13 -39 -22 0 -6 7 -4 17 3 9 8 18 13
20 11 2 -1 19 4 38 12 20 9 37 16 40 16 2 1 45 21 94 46 49 24 92 44 94 44 3
0 67 30 142 66 220 105 228 107 233 64 1 -6 53 -147 73 -200 8 -19 17 -37 20
-40 28 -25 10 -53 -69 -107 -41 -28 -59 -43 -80 -66 -9 -9 -21 -17 -27 -17 -6
0 -24 -14 -40 -30 -16 -17 -34 -30 -41 -30 -7 0 -14 -3 -16 -7 -4 -11 -95 -83
-103 -83 -3 0 -13 -6 -20 -12 -8 -7 -26 -22 -41 -33 -14 -11 -32 -26 -40 -33
-8 -7 -14 -10 -14 -7 0 4 -8 -3 -18 -15 l-18 -22 -62 34 c-84 45 -266 160
-270 170 -2 4 -9 8 -16 8 -7 0 -21 9 -31 20 -10 11 -22 20 -26 20 -8 0 -53 32
-129 90 -14 11 -47 37 -75 57 -27 21 -55 43 -61 48 -6 6 -30 26 -53 45 -23 19
-56 47 -73 63 -16 15 -34 27 -39 27 -11 0 7 -42 40 -95 14 -22 26 -42 26 -45
1 -11 152 -226 180 -256 5 -6 30 -35 55 -65 99 -117 239 -248 370 -346 47 -35
90 -67 97 -73 7 -5 17 -10 23 -10 5 0 10 -4 10 -9 0 -5 8 -11 18 -15 9 -3 31
-15 47 -26 17 -11 37 -23 45 -27 8 -3 17 -10 20 -13 5 -6 207 -106 293 -145
89 -39 359 -129 427 -141 14 -3 32 -7 40 -10 8 -3 24 -8 35 -10 11 -2 52 -11
90 -19 39 -9 86 -18 105 -20 19 -2 46 -7 60 -10 14 -3 43 -8 65 -10 22 -2 56
-6 75 -10 32 -6 61 -8 225 -20 153 -11 621 -5 715 10 14 2 61 9 105 15 44 7
89 14 100 17 11 2 34 6 52 8 18 2 38 7 45 11 7 5 19 9 28 10 22 2 94 22 185
52 44 14 82 27 85 27 8 3 42 16 87 36 23 11 45 19 48 19 9 0 211 101 273 136
75 43 296 191 326 219 15 14 30 25 33 25 3 0 21 16 39 35 19 18 34 32 34 30 0
-5 85 82 113 114 53 64 131 197 143 246 2 6 6 24 11 40 4 17 7 73 7 125 -1 82
-5 105 -30 165 -45 106 -89 160 -159 195 -59 29 -132 40 -191 26 -48 -10 -103
-48 -150 -102 -27 -31 -61 -70 -76 -86 -15 -16 -31 -35 -35 -43 -12 -21 -121
-141 -198 -219 -122 -123 -211 -197 -229 -190 -9 3 -16 10 -16 15 0 5 -21 30
-47 56 -27 27 -65 67 -85 90 -20 23 -39 39 -42 35 -3 -3 -6 2 -6 10 0 9 -7 18
-15 22 -23 8 -18 47 14 107 16 30 39 83 52 118 l24 63 60 -6 c62 -6 71 -8 169
-25 32 -6 61 -10 65 -9 3 0 8 -1 11 -2 11 -4 92 -19 140 -25 19 -3 46 -7 60
-10 33 -6 -31 23 -140 65 -47 18 -101 39 -120 47 -68 29 -75 32 -138 55 -70
26 -77 38 -64 108 15 84 5 335 -16 414 -9 30 -7 35 17 48 14 9 44 21 66 28 22
7 63 23 90 35 28 13 73 30 100 40 28 9 64 23 80 30 80 36 179 74 184 71 3 -2
12 2 18 10 11 11 7 12 -20 9 -17 -1 -48 -6 -67 -10 -19 -4 -44 -8 -55 -10 -11
-2 -58 -10 -105 -18 -47 -9 -103 -18 -125 -22 -23 -3 -52 -7 -65 -10 -57 -11
-107 -18 -138 -19 -31 -1 -35 3 -60 60 -15 33 -35 72 -44 86 -21 32 -19 48 12
80 14 14 79 83 145 153 166 176 205 215 215 215 13 0 165 -83 168 -92 2 -4 9
-8 16 -8 7 0 33 -14 57 -32 24 -17 45 -31 47 -30 4 4 177 -110 184 -122 5 -6
8 -7 8 -1 0 6 3 6 8 0 4 -6 32 -28 62 -50 30 -22 60 -44 66 -50 6 -5 22 -17
34 -25 40 -27 161 -124 199 -160 9 -8 28 -25 42 -38 l27 -23 0 25 c0 14 -7 31
-14 37 -8 6 -14 16 -14 21 0 6 -18 37 -40 70 -22 33 -40 62 -40 65 0 6 -136
188 -170 227 -42 50 -153 167 -184 195 -16 14 -40 36 -53 49 -12 13 -23 20
-23 18 0 -3 -12 7 -27 22 -16 16 -46 41 -68 58 -22 16 -42 31 -45 35 -8 9
-202 135 -240 155 -19 11 -37 22 -40 25 -6 6 -171 87 -245 119 -117 51 -116
51 -103 68 11 14 10 14 -11 0 -15 -11 -29 -14 -40 -8 -18 10 -51 22 -68 26
-16 3 -84 24 -103 31 -8 4 -21 5 -27 4 -7 -1 -13 2 -13 6 0 5 -8 9 -18 10 -9
1 -56 11 -102 23 -47 12 -96 24 -110 26 -76 13 -80 15 -81 42 -1 34 1 75 7
130 2 23 2 42 -1 42 -3 0 -5 -7 -5 -15z m-162 -519 c9 -5 11 -17 7 -35 -4 -14
-8 -33 -10 -41 -2 -8 -11 -35 -19 -59 -9 -24 -14 -47 -11 -52 6 -9 -29 -31
-37 -24 -4 5 -32 9 -118 19 -19 3 -67 5 -107 5 -78 1 -86 6 -98 64 -3 15 -7
39 -10 54 -3 14 -10 34 -15 43 -18 34 6 39 209 37 108 -2 202 -6 209 -11z
m-543 -16 c-3 -5 -2 -10 2 -10 5 0 8 -39 7 -87 -2 -103 -2 -108 -10 -101 -3 4
-20 2 -37 -3 -18 -6 -41 -12 -52 -14 -11 -3 -44 -14 -74 -25 -33 -12 -59 -16
-65 -11 -6 5 -45 43 -86 84 -61 59 -73 76 -63 86 7 6 13 9 13 6 0 -3 13 1 29
9 16 9 31 12 34 9 4 -3 14 0 23 8 10 8 20 13 23 13 3 -1 11 0 16 1 6 2 28 7
50 11 22 4 47 9 55 11 17 4 108 20 128 22 7 0 10 -3 7 -9z m740 -10 c0 -1 11
-3 25 -4 23 -2 83 -15 155 -35 17 -5 51 -14 78 -21 26 -7 50 -17 53 -22 4 -5
-6 -22 -20 -37 -14 -15 -26 -32 -26 -39 0 -7 -4 -12 -9 -12 -5 0 -13 -9 -16
-20 -3 -11 -12 -26 -18 -33 -23 -24 -57 -76 -57 -86 0 -28 -45 -19 -137 26
l-98 48 2 40 c0 22 2 72 3 110 2 39 7 75 11 81 8 9 54 13 54 4z m-1210 -137
c14 -15 25 -31 25 -36 0 -4 5 -13 10 -20 61 -71 89 -137 59 -137 -19 0 -117
-73 -216 -162 l-65 -58 -36 20 c-20 11 -95 47 -166 81 -149 69 -148 58 -9 147
78 49 322 176 370 191 1 1 14 -11 28 -26z m1717 -3 c46 -17 97 -37 115 -45 17
-8 33 -15 36 -15 2 0 44 -19 93 -42 49 -23 92 -41 96 -40 4 1 12 -7 17 -17 9
-16 4 -21 -29 -36 -22 -10 -40 -22 -40 -27 0 -5 -8 -12 -17 -15 -10 -4 -40
-23 -68 -43 -27 -20 -98 -69 -157 -109 -92 -62 -110 -71 -128 -61 -11 6 -20
17 -20 25 0 8 -3 15 -7 15 -12 1 -119 105 -126 123 -3 8 1 21 9 27 8 7 14 18
14 24 0 7 18 55 41 107 22 52 42 99 43 104 4 20 27 55 36 55 5 0 46 -14 92
-30z m-2220 -365 c40 -30 80 -60 88 -67 8 -8 41 -33 72 -57 32 -24 56 -48 55
-54 -1 -7 -14 -31 -29 -54 -16 -23 -28 -46 -28 -52 0 -6 -4 -11 -9 -11 -9 0
-26 -48 -23 -62 1 -5 -2 -8 -7 -8 -8 0 -19 -21 -26 -50 -12 -43 -19 -60 -25
-60 -5 0 -39 14 -77 31 -37 17 -69 30 -70 30 -2 0 -49 23 -105 51 -131 64
-210 101 -222 102 -28 3 -8 34 74 115 50 50 93 91 96 91 2 0 12 8 22 18 54 52
107 92 122 92 10 0 51 -25 92 -55z m1703 -255 c6 -5 12 -8 15 -7 9 3 45 -28
57 -50 17 -30 19 -593 3 -623 -18 -33 -45 -56 -74 -64 -15 -4 -96 -7 -180 -7
-123 -1 -153 -3 -153 -14 0 -8 4 -12 9 -9 7 5 12 -10 9 -28 0 -4 7 -4 16 -1
13 5 15 2 10 -11 -4 -9 -3 -15 2 -12 9 6 26 -22 22 -37 -1 -5 3 -6 8 -3 10 6
34 -26 45 -61 6 -20 4 -21 -52 -19 -32 2 -65 6 -72 11 -7 5 -11 4 -7 -1 3 -5
-31 -9 -79 -9 -46 0 -84 4 -84 8 0 5 -5 5 -11 1 -6 -3 -54 -7 -106 -9 -77 -1
-96 1 -101 14 -3 8 0 17 6 19 7 2 12 10 12 18 0 8 5 14 11 14 5 0 7 5 4 10 -3
6 -2 10 4 10 6 0 13 11 17 24 3 14 12 27 21 30 8 3 11 10 8 16 -3 5 -2 10 3
10 6 0 12 7 15 15 5 12 -21 14 -174 14 -167 1 -183 3 -210 22 -52 36 -53 43
-54 349 -1 229 2 291 14 315 15 32 43 56 76 66 31 9 959 8 970 -1z m-608 -963
c6 -4 13 -1 16 5 3 10 7 10 17 1 9 -8 19 -9 30 -3 18 10 92 6 111 -6 7 -4 10
-3 7 2 -7 11 342 11 388 0 70 -16 115 -111 83 -174 -36 -70 -90 -91 -204 -81
-5 1 -28 1 -50 0 -76 -3 -233 -3 -267 0 -7 1 -31 1 -53 0 -70 -3 -216 -3 -267
0 -7 0 -33 0 -58 -1 -25 0 -54 1 -65 4 -11 2 -23 5 -28 5 -19 2 -66 60 -75 93
-13 46 -11 55 13 93 25 39 43 53 79 63 35 9 307 9 323 -1z m-828 -379 c7 -21
199 -206 221 -213 11 -4 20 -15 20 -27 0 -21 -37 -90 -52 -96 -4 -2 -8 -7 -8
-12 0 -5 -23 -43 -50 -85 -28 -41 -55 -86 -61 -99 -8 -17 -18 -22 -37 -20 -15
1 -28 3 -29 4 -2 1 -6 3 -10 5 -5 1 -21 5 -38 10 -16 4 -34 11 -40 15 -5 4
-23 10 -40 14 -16 4 -48 16 -72 27 -23 10 -44 19 -47 19 -22 0 -381 173 -390
189 -4 5 -1 13 5 17 8 5 10 2 5 -7 -6 -10 -4 -10 6 1 7 8 20 16 28 18 8 2 40
15 70 30 30 14 57 26 60 27 3 1 50 23 105 50 206 98 286 135 295 135 6 0 10 4
10 9 0 14 44 3 49 -11z m2055 -90 c11 -10 26 -18 33 -18 7 0 13 -4 13 -8 0 -9
62 -47 73 -44 23 7 0 -22 -45 -57 -29 -22 -57 -44 -63 -49 -21 -16 -122 -80
-155 -98 -19 -10 -37 -21 -40 -24 -12 -12 -69 -40 -82 -40 -8 0 -21 17 -30 38
-43 98 -68 162 -68 172 0 5 50 59 110 120 l110 109 63 -42 c34 -23 71 -50 81
-59z m-467 -215 c7 -10 26 -36 40 -58 14 -22 29 -42 32 -45 4 -3 15 -18 25
-34 18 -28 18 -30 0 -43 -10 -7 -26 -13 -35 -13 -10 0 -21 -5 -24 -10 -4 -6
-11 -8 -16 -5 -5 4 -9 1 -9 -4 0 -6 -7 -11 -15 -11 -9 0 -29 -7 -44 -15 -16
-8 -39 -16 -52 -19 -13 -2 -36 -9 -52 -15 -15 -6 -38 -13 -50 -16 -12 -3 -34
-8 -49 -11 -24 -6 -28 -3 -28 17 -1 13 -2 56 -5 96 -3 58 -1 74 13 86 16 14
123 53 131 48 2 -2 7 2 10 7 7 11 90 59 105 61 5 1 15 -7 23 -16z m-1189 -23
c1 -1 5 -3 10 -4 4 -1 32 -13 62 -27 30 -14 77 -32 103 -40 27 -8 52 -21 56
-29 9 -19 8 -101 -2 -117 -5 -8 -3 -13 3 -13 7 0 7 -7 -1 -22 -7 -13 -12 -23
-11 -23 0 0 5 -12 11 -27 7 -19 7 -28 -3 -31 -20 -8 -129 2 -251 23 -38 7 -79
14 -90 15 -11 2 -47 11 -80 20 -33 9 -65 18 -72 19 -7 1 -15 5 -18 8 -3 3 49
62 117 130 83 84 129 124 143 122 11 -1 21 -3 23 -4z m772 -166 c0 -13 4 -25
10 -29 5 -3 7 -12 3 -20 -3 -9 -1 -21 5 -28 11 -14 27 -75 16 -65 -3 4 -14 3
-24 -2 -9 -5 -41 -12 -71 -15 -30 -3 -67 -8 -84 -10 -48 -8 -286 -14 -301 -8
-8 3 -11 10 -7 17 8 13 8 9 28 99 25 111 13 104 172 101 76 -1 156 1 178 5 47
9 75 -8 75 -45z"/>
<path d="M2420 2236 c0 -2 8 -10 18 -17 15 -13 16 -12 3 4 -13 16 -21 21 -21
13z"/>
<path d="M2753 2197 c0 -8 6 -14 14 -14 9 0 10 4 2 14 -6 7 -12 13 -14 13 -1
0 -2 -6 -2 -13z"/>
<path d="M2355 2190 c-3 -5 -1 -10 4 -10 6 0 11 5 11 10 0 6 -2 10 -4 10 -3 0
-8 -4 -11 -10z"/>
</g>
</svg>
