<?xml version="1.0" standalone="no"?>
<!DOCTYPE svg PUBLIC "-//W3C//DTD SVG 20010904//EN"
 "http://www.w3.org/TR/2001/REC-SVG-20010904/DTD/svg10.dtd">
<svg version="1.0" xmlns="http://www.w3.org/2000/svg"
 width="1080.000000pt" height="750.000000pt" viewBox="0 0 1080.000000 750.000000"
 preserveAspectRatio="xMidYMid meet">

<g transform="translate(0.000000,750.000000) scale(0.100000,-0.100000)"
fill="#fff" stroke="none">
<path d="M4672 6310 c-489 -22 -870 -110 -1282 -295 -355 -159 -732 -412 -941
-632 -265 -278 -344 -547 -238 -811 63 -158 145 -247 260 -283 78 -24 141 -24
215 1 89 31 125 60 210 167 43 54 80 100 83 103 4 3 31 34 61 70 30 36 65 76
78 90 12 14 22 28 22 32 0 4 -36 33 -80 65 -72 53 -106 87 -62 64 49 -26 175
-81 185 -81 7 0 40 28 74 63 75 77 228 218 305 280 l57 46 -188 143 c-104 79
-185 144 -181 146 3 1 96 -40 206 -91 291 -137 253 -131 360 -60 125 84 228
142 397 223 l146 70 -56 88 c-31 48 -94 145 -140 216 -46 70 -87 135 -90 145
-4 9 87 -76 201 -189 113 -113 211 -206 216 -208 5 -2 57 11 117 27 59 17 170
44 247 59 l138 28 -2 109 c-1 61 -5 180 -9 265 l-6 155 -65 1 c-36 1 -143 -2
-238 -6z"/>
<path d="M5026 6312 c-2 -1 19 -87 46 -190 26 -103 56 -217 65 -253 l16 -66
186 1 c102 1 228 -1 280 -4 l93 -5 18 65 c10 36 29 108 43 160 50 183 57 214
49 221 -22 22 -779 89 -796 71z"/>
<path d="M5909 6228 c-4 -7 -26 -453 -24 -456 2 -2 68 -16 147 -32 78 -16 183
-40 233 -54 49 -14 93 -22 96 -18 19 20 249 358 249 366 0 14 -454 146 -605
176 -33 6 -68 14 -77 16 -10 3 -19 4 -19 2z"/>
<path d="M6617 5958 c-14 -35 -51 -123 -81 -197 -31 -74 -56 -135 -56 -136 0
-2 46 -20 103 -40 117 -43 258 -102 400 -169 l99 -46 101 69 c56 37 109 72
117 77 8 4 -21 -31 -65 -79 -44 -48 -81 -91 -83 -95 -1 -4 30 -25 70 -47 249
-134 595 -359 788 -514 30 -24 73 -58 95 -75 43 -34 169 -140 200 -169 20 -18
20 -18 23 7 2 16 -17 59 -59 128 -226 376 -526 701 -879 952 -198 141 -369
237 -625 349 -128 56 -119 57 -148 -15z"/>
<path d="M7804 3691 c-22 -9 -59 -28 -81 -43 -43 -28 -52 -38 -229 -253 -96
-116 -331 -360 -424 -440 -454 -392 -856 -604 -1350 -714 -231 -51 -360 -65
-610 -64 -350 1 -587 36 -958 144 -561 162 -1200 507 -1750 946 -54 43 -99 80
-102 83 -3 3 -35 32 -73 64 -58 51 -67 56 -67 36 0 -38 113 -227 233 -390 483
-654 1149 -1071 2037 -1275 141 -32 370 -70 550 -91 183 -21 794 -30 1000 -15
496 37 986 187 1415 433 88 50 275 168 315 198 19 15 71 53 115 86 112 83 292
265 355 358 68 102 125 225 140 304 20 101 9 253 -26 337 -43 107 -73 155
-134 215 -71 72 -142 100 -243 99 -41 -1 -90 -8 -113 -18z"/>
<path d="M5644 1311 c-2 -2 -4 -188 -4 -413 l0 -408 69 0 70 0 3 200 3 200 27
26 c19 20 40 28 75 31 102 10 126 -51 121 -307 l-3 -150 74 0 73 0 -4 208 c-3
170 -7 215 -22 249 -56 132 -223 160 -321 56 l-25 -28 0 168 c0 126 -3 167
-12 168 -35 4 -120 3 -124 0z"/>
<path d="M7873 1312 l-63 -3 0 -409 0 -410 70 0 70 0 0 409 c0 226 -3 411 -7
413 -5 2 -36 2 -70 0z"/>
<path d="M9195 1265 c-50 -49 -15 -125 57 -125 44 0 82 43 74 83 -13 65 -85
89 -131 42z"/>
<path d="M6673 1262 c-64 -26 -104 -62 -129 -117 -29 -62 -30 -106 -3 -162 28
-59 88 -105 191 -148 107 -45 138 -73 138 -127 0 -50 -13 -74 -51 -94 -44 -22
-153 -20 -220 5 -29 11 -54 19 -57 17 -2 -2 -9 -27 -17 -55 -13 -49 -12 -52 8
-63 68 -36 206 -48 295 -26 160 39 235 194 159 331 -24 43 -78 80 -192 132
-103 47 -125 67 -125 117 0 49 32 84 86 94 35 6 123 -4 179 -21 18 -5 23 0 34
44 7 28 10 54 7 59 -20 33 -232 43 -303 14z"/>
<path d="M437 1263 c-14 -30 0 -38 71 -41 71 -3 72 -3 72 23 0 24 -2 25 -69
25 -39 0 -72 -3 -74 -7z"/>
<path d="M3930 1210 l0 -60 110 0 110 0 0 -330 0 -330 70 0 70 0 0 330 0 329
113 3 112 3 3 58 3 57 -296 0 -295 0 0 -60z"/>
<path d="M8840 1196 l-45 -12 -3 -67 c-2 -46 -7 -67 -15 -66 -7 1 -24 1 -39 0
-27 -1 -28 -3 -28 -51 l0 -50 39 0 39 0 4 -177 c3 -195 11 -222 70 -266 29
-22 126 -35 173 -23 23 6 25 11 25 60 l0 54 -45 -1 c-75 -3 -79 7 -83 193 l-3
160 70 0 71 0 0 50 0 50 -70 0 -70 0 0 80 c0 91 1 90 -90 66z"/>
<path d="M440 835 l0 -345 70 0 70 0 0 345 0 345 -70 0 -70 0 0 -345z"/>
<path d="M1000 1061 c-46 -15 -88 -40 -108 -66 l-20 -25 -6 40 -6 40 -60 0
-60 0 0 -280 0 -280 70 0 70 0 0 168 c0 92 5 184 10 204 20 71 93 106 165 78
46 -18 55 -59 55 -265 l0 -185 70 0 70 0 0 198 c0 207 -6 248 -43 302 -38 57
-142 92 -207 71z"/>
<path d="M1635 1066 c-5 -3 -22 -7 -37 -10 -14 -3 -47 -21 -71 -40 l-45 -34
-6 34 -7 34 -59 0 -60 0 0 -280 0 -280 70 0 70 0 0 175 c0 192 7 225 55 263
30 24 92 29 127 11 40 -21 48 -67 48 -264 l0 -185 70 0 70 0 0 198 c0 111 -5
214 -11 237 -14 53 -50 98 -92 118 -34 17 -104 29 -122 23z"/>
<path d="M2165 1059 c-95 -23 -169 -85 -198 -165 -20 -57 -22 -191 -4 -242 22
-60 91 -128 154 -152 138 -52 305 5 362 123 61 126 41 287 -46 369 -60 58
-182 88 -268 67z m152 -134 c109 -115 40 -361 -97 -342 -53 7 -85 33 -110 89
-48 112 -5 261 83 287 48 14 89 3 124 -34z"/>
<path d="M3325 1060 c-47 -10 -115 -38 -115 -46 0 -25 25 -84 34 -80 53 23
125 38 165 33 51 -6 91 -41 91 -81 0 -21 -6 -24 -62 -30 -178 -18 -268 -90
-268 -213 0 -59 25 -103 80 -139 36 -24 47 -26 109 -22 58 4 77 11 113 37 l43
32 3 -31 c3 -30 3 -30 65 -30 l63 0 -4 203 c-3 220 -12 266 -60 314 -14 14
-41 32 -59 40 -43 18 -146 25 -198 13z m183 -330 c8 -83 -41 -150 -111 -150
-30 0 -67 16 -79 34 -14 21 -8 84 10 106 20 24 100 50 147 47 27 -2 30 -6 33
-37z"/>
<path d="M4677 1056 c-117 -32 -197 -151 -197 -291 0 -115 56 -211 148 -257
40 -19 62 -23 147 -23 126 0 185 16 185 50 0 13 -4 35 -10 49 -8 23 -12 24
-42 15 -54 -15 -176 -11 -215 8 -40 18 -73 66 -73 103 l0 25 177 -2 c123 -1
181 2 191 10 33 27 -8 199 -61 255 -55 59 -160 84 -250 58z m145 -113 c26 -28
51 -96 40 -107 -3 -3 -59 -6 -124 -6 -132 0 -136 2 -102 73 21 45 59 66 115
67 37 0 50 -5 71 -27z"/>
<path d="M5319 1060 c-93 -16 -170 -74 -215 -162 -34 -67 -34 -191 0 -264 58
-124 199 -179 367 -143 l52 11 -6 50 c-4 28 -8 52 -10 54 -2 2 -19 -1 -38 -6
-87 -25 -180 2 -218 64 -27 43 -38 130 -22 179 30 90 129 136 231 107 42 -12
48 -6 56 51 l6 45 -52 12 c-57 13 -82 13 -151 2z"/>
<path d="M7317 1056 c-122 -35 -197 -144 -197 -285 0 -94 24 -156 80 -211 138
-134 377 -94 461 77 33 69 34 208 1 275 -26 53 -88 113 -137 134 -50 20 -153
25 -208 10z m158 -112 c42 -28 65 -86 65 -165 -1 -127 -53 -199 -144 -199
-107 0 -170 177 -109 308 34 73 123 99 188 56z"/>
<path d="M9645 1057 c-90 -30 -135 -68 -177 -147 -19 -38 -23 -60 -23 -140 0
-84 3 -101 27 -146 63 -120 214 -175 351 -128 60 20 129 82 158 141 33 69 34
208 1 274 -30 61 -74 107 -126 130 -56 24 -160 32 -211 16z m153 -115 c61 -40
84 -188 42 -279 -52 -115 -201 -105 -242 16 -19 59 -14 160 11 209 38 74 122
98 189 54z"/>
<path d="M10363 1052 c-23 -10 -55 -30 -71 -45 -37 -35 -42 -34 -42 8 l0 35
-60 0 -60 0 0 -280 0 -280 70 0 70 0 0 180 c0 196 5 219 56 259 32 25 90 28
123 5 43 -31 51 -70 51 -264 l0 -180 70 0 70 0 0 203 c-1 138 -5 213 -14 238
-21 61 -61 103 -113 122 -59 21 -96 21 -150 -1z"/>
<path d="M2573 1033 c2 -10 42 -117 87 -238 45 -121 89 -239 97 -263 l15 -43
71 3 70 3 103 270 c57 148 104 273 104 277 0 11 -138 10 -144 -1 -7 -11 -82
-253 -102 -331 -23 -87 -25 -89 -40 -35 -15 51 -40 132 -90 288 l-28 87 -74 0
c-66 0 -74 -2 -69 -17z"/>
<path d="M8100 877 c0 -96 5 -198 10 -228 20 -105 91 -169 185 -169 56 0 134
32 159 65 26 35 36 31 36 -15 l0 -40 60 0 60 0 0 280 0 280 -70 0 -70 0 0
-182 c0 -207 -8 -236 -75 -264 -50 -20 -71 -18 -107 15 l-33 29 -5 199 -5 198
-72 3 -73 3 0 -174z"/>
<path d="M9180 770 l0 -280 70 0 70 0 0 280 0 280 -70 0 -70 0 0 -280z"/>
</g>
</svg>
